<?xml version="1.0" encoding="utf-8"?>
<svg version="1.1" id="Layer_1" xmlns="http://www.w3.org/2000/svg" xmlns:xlink="http://www.w3.org/1999/xlink" x="0px" y="0px"
	 viewBox="0 0 600 12" style="enable-background:new 0 0 600 12;" xml:space="preserve">
<path d="M600,0l-12,12L576,0l-12,12L552,0l-12,12L528,0l-12,12L504,0l-12,12L480,0l-12,12L456,0l-12,12L432,0l-12,12L408,0l-12,12
	L384,0l-12,12L360,0l-12,12L336,0l-12,12L312,0l-12,12L288,0l-12,12L264,0l-12,12L240,0l-12,12L216,0l-12,12L192,0l-12,12L168,0
	l-12,12L144,0l-12,12L120,0l-12,12L96,0L84,12L72,0L60,12L48,0L36,12L24,0L12,12L0,0H600z"/>
</svg>
