<?xml version="1.0" encoding="utf-8"?>
<!-- Generator: Adobe Illustrator 20.0.0, SVG Export Plug-In . SVG Version: 6.00 Build 0)  -->
<svg version="1.1" id="Layer_1" xmlns="http://www.w3.org/2000/svg" xmlns:xlink="http://www.w3.org/1999/xlink" x="0px" y="0px"
	 viewBox="0 0 12 600" style="enable-background:new 0 0 12 600;" xml:space="preserve">
<path d="M0,0l12,12L0,24l12,12L0,48l12,12L0,72l12,12L0,96l12,12L0,120l12,12L0,144l12,12L0,168l12,12L0,192l12,12L0,216l12,12
	L0,240l12,12L0,264l12,12L0,288l12,12L0,312l12,12L0,336l12,12L0,360l12,12L0,384l12,12L0,408l12,12L0,432l12,12L0,456l12,12L0,480
	l12,12L0,504l12,12L0,528l12,12L0,552l12,12L0,576l12,12L0,600V0z"/>
</svg>
