<svg version="1.1" xmlns="http://www.w3.org/2000/svg" xmlns:xlink="http://www.w3.org/1999/xlink" style="display:none;" id="spritesheet">
  <symbol id="icon-magnify" viewBox="10 10 20 20">
    <title>Search</title>
    <desc>Opens search box</desc>
    <path d="M29.7,28.3L23.5,22c1-1.3,1.5-2.8,1.5-4.5c0-4.1-3.4-7.5-7.5-7.5S10,13.4,10,17.5s3.4,7.5,7.5,7.5c1.7,0,3.3-0.6,4.5-1.5 l6.3,6.3L29.7,28.3z M12,17.5c0-3,2.5-5.5,5.5-5.5s5.5,2.5,5.5,5.5S20.5,23,17.5,23S12,20.5,12,17.5z"></path>
  </symbol>
  <symbol id="icon-login" viewBox="10 10 21 21">
    <title>Shop login</title>
    <path d="M20.5,10A10.5,10.5,0,1,0,31,20.5,10.51,10.51,0,0,0,20.5,10Zm0,19.21a8.71,8.71,0,1,1,8.71-8.71A8.72,8.72,0,0,1,20.5,29.21Z"/>
    <path d="M20.5,27.08A7.25,7.25,0,0,0,26.45,24v-.38a2.67,2.67,0,0,0-2.67-2.67H22.25a3.62,3.62,0,1,0-3.49,0H17.22a2.67,2.67,0,0,0-2.67,2.67V24A7.25,7.25,0,0,0,20.5,27.08Z"/>
  </symbol>
  <symbol id="icon-pinterest" viewBox="0 0 50 50" enable-background="new 0 0 50 50" xml:space="preserve">
    <title>Pinterest</title>
    <desc>Follow us on pinterest</desc>
    <style>.pint-cls-1{fill:#bb0f23;}.pint-cls-2{fill:#fff;fill-rule:evenodd;}</style></defs>
    <circle class="pint-cls-1" cx="25" cy="25" r="25"/>
    <path class="pint-cls-2" d="M10.241,23.752c0,3.87,1.457,7.313,4.579,8.6a.769.769,0,0,0,1.119-.564c.1-.394.348-1.391.456-1.806a1.094,1.094,0,0,0-.322-1.253A6.522,6.522,0,0,1,14.6,24.312,10.622,10.622,0,0,1,25.605,13.537c6,0,9.3,3.692,9.3,8.622,0,6.487-2.853,11.963-7.087,11.963a3.476,3.476,0,0,1-3.529-4.334c.672-2.851,1.973-5.927,1.973-7.984,0-1.842-.983-3.377-3.014-3.377-2.39,0-4.313,2.488-4.313,5.822a8.687,8.687,0,0,0,.714,3.56L16.775,40.071a25.41,25.41,0,0,0-.066,8.549.3.3,0,0,0,.531.13,24.1,24.1,0,0,0,4.037-7.363c.273-1,1.571-6.184,1.571-6.184a6.4,6.4,0,0,0,5.461,2.8c7.188,0,12.063-6.594,12.063-15.42,0-6.674-5.617-12.889-14.154-12.889C15.6,9.7,10.241,17.361,10.241,23.752Zm0,0"/>
  </symbol>
  <symbol id="icon-facebook" viewBox="0 0 50 50" enable-background="new 0 0 50 50" xml:space="preserve">
    <style xmlns="http://www.w3.org/2000/svg">.face-cls-1{fill:#fff;}.face-cls-2{fill:#3b5998;}.face-cls-3{clip-path:url(#clip-path-face);}</style><clipPath xmlns="http://www.w3.org/2000/svg" id="clip-path-face"><path class="face-cls-1" d="M26.49,38.07H21V25H18.18v-4.5H21v-2.7c0-3.67,1.56-5.86,6-5.86h3.7v4.51H28.34c-1.73,0-1.84.63-1.84,1.8v2.25h4.19L30.19,25h-3.7V38.07Zm0,0"/></clipPath>
    <circle xmlns="http://www.w3.org/2000/svg" class="face-cls-2" cx="25" cy="25" r="25"/>
    <path xmlns="http://www.w3.org/2000/svg" class="face-cls-1" d="M26.49,38.07H21V25H18.18v-4.5H21v-2.7c0-3.67,1.56-5.86,6-5.86h3.7v4.51H28.34c-1.73,0-1.84.63-1.84,1.8v2.25h4.19L30.19,25h-3.7V38.07Zm0,0"/>
  </symbol>
  <symbol id="icon-twitter" viewBox="0 0 50 50" enable-background="new 0 0 50 50" xml:space="preserve">
    <style>.twit-cls-1,.twit-cls-3,.twit-cls-5{fill:#fff;}.twit-cls-1{clip-rule:evenodd;}.twit-cls-2{fill:#00b6ee;}.twit-cls-3{fill-rule:evenodd;}.twit-cls-4{twit-clip-path:url(#twit-clip-path);}</style><clipPath id="twit-clip-path"><path class="twit-cls-1" d="M35.89,18.22A5.8,5.8,0,0,0,38.32,15a10.74,10.74,0,0,1-3.52,1.42,5.39,5.39,0,0,0-4-1.85,5.7,5.7,0,0,0-5.54,5.84,6.11,6.11,0,0,0,.14,1.33,15.47,15.47,0,0,1-11.42-6.1,6.07,6.07,0,0,0-.75,2.94,5.94,5.94,0,0,0,2.46,4.86,5.34,5.34,0,0,1-2.51-.73v.07A5.77,5.77,0,0,0,17.6,28.5a5.16,5.16,0,0,1-1.46.21,5.21,5.21,0,0,1-1-.1,5.59,5.59,0,0,0,5.17,4.06,10.75,10.75,0,0,1-6.88,2.5,10.46,10.46,0,0,1-1.32-.08,15.1,15.1,0,0,0,8.49,2.62c10.19,0,15.76-8.9,15.76-16.62,0-.25,0-.51,0-.76a11.58,11.58,0,0,0,2.76-3,10.62,10.62,0,0,1-3.18.92Zm0,0"/></clipPath><title>social_icons</title><circle class="twit-cls-2" cx="25" cy="25" r="25"/><path class="twit-cls-3" d="M35.89,18.22A5.8,5.8,0,0,0,38.32,15a10.74,10.74,0,0,1-3.52,1.42,5.39,5.39,0,0,0-4-1.85,5.7,5.7,0,0,0-5.54,5.84,6.11,6.11,0,0,0,.14,1.33,15.47,15.47,0,0,1-11.42-6.1,6.07,6.07,0,0,0-.75,2.94,5.94,5.94,0,0,0,2.46,4.86,5.34,5.34,0,0,1-2.51-.73v.07A5.77,5.77,0,0,0,17.6,28.5a5.16,5.16,0,0,1-1.46.21,5.21,5.21,0,0,1-1-.1,5.59,5.59,0,0,0,5.17,4.06,10.75,10.75,0,0,1-6.88,2.5,10.46,10.46,0,0,1-1.32-.08,15.1,15.1,0,0,0,8.49,2.62c10.19,0,15.76-8.9,15.76-16.62,0-.25,0-.51,0-.76a11.58,11.58,0,0,0,2.76-3,10.62,10.62,0,0,1-3.18.92Zm0,0"/>
  </symbol>
  <symbol id="icon-youtube" viewBox="0 0 50 50" enable-background="new 0 0 50 50" xml:space="preserve">
    <title>Youtube</title>
    <desc>Follow us on youtube</desc>
    <style xmlns="http://www.w3.org/2000/svg">.cls-1,.cls-3,.cls-5{fill:#fff;}.cls-1{clip-rule:evenodd;}.cls-2{fill:#ce3432;}.cls-3{fill-rule:evenodd;}.cls-4{clip-path:url(#you-clip-path);}</style><clipPath xmlns="http://www.w3.org/2000/svg" id="you-clip-path"><path class="cls-1" d="M17.82,31.52l0-4.79h1.79V25.24H14.44v1.5h1.75v4.75c0,2.61,0,4.77,0,4.8s.2,0,.79,0h.78l0-4.79Zm14.9-.34a7.56,7.56,0,0,1,.06-1.36.7.7,0,0,1,.73-.56.65.65,0,0,1,.65.4c.09.17.09.25.11.89v.7h-.77c-.66,0-.77,0-.79-.06Zm1.44,5.16a2,2,0,0,0,1.48-1.46,5.23,5.23,0,0,0,.08-.79l0-.56H34.28l0,.5c0,.57-.08.77-.29,1a.78.78,0,0,1-.89,0c-.31-.21-.39-.57-.38-1.74v-.83h3l0-1.23a4.15,4.15,0,0,0-.28-2.07,2.18,2.18,0,0,0-2.66-1,2,2,0,0,0-1.39,1.56,14,14,0,0,0-.07,2.53c0,2.46,0,2.57.26,3.07a2.24,2.24,0,0,0,2.59,1.08Zm-6-1.4a.53.53,0,0,0,.2-.29,12.53,12.53,0,0,0,.06-2.52,9.53,9.53,0,0,0-.08-2.48c-.18-.37-.64-.4-1.06-.08l-.14.11v5l.14.11a.77.77,0,0,0,.89.13Zm.91,1.42a1.19,1.19,0,0,0,.63-.62c.24-.53.24-.55.24-3.55a19.7,19.7,0,0,0-.07-3c-.2-.85-.63-1.23-1.35-1.17a1.7,1.7,0,0,0-1.11.56,2.65,2.65,0,0,1-.33.29s0-.82,0-1.81V25.22H25.67V36.33h1.41V36c0-.25,0-.37,0-.37a2.05,2.05,0,0,1,.35.29,1.52,1.52,0,0,0,1.62.49Zm-7.52,0a2.66,2.66,0,0,0,.89-.62,1.13,1.13,0,0,1,.28-.24s.05.11.05.43v.43h1.41V28.09H22.81v6.35l-.3.3a1.09,1.09,0,0,1-.49.36c-.25.07-.41,0-.52-.16s-.08-.2-.09-3.49V28.09H20v3.57c0,3.89,0,4,.22,4.34a1.09,1.09,0,0,0,1.38.32Zm.6,3.44-2.42-.06c-2.76-.1-4.65-.21-5-.28a2.79,2.79,0,0,1-1.49-.91,5.09,5.09,0,0,1-1-2.81,42.94,42.94,0,0,1,0-9.38,4.6,4.6,0,0,1,1.17-2.82,2.42,2.42,0,0,1,1.18-.69,129.46,129.46,0,0,1,13.74-.36c2.78.06,5.79.19,6.59.28a2.73,2.73,0,0,1,2.26,1.67,7.87,7.87,0,0,1,.65,3.21A36.53,36.53,0,0,1,38,31.68a31.41,31.41,0,0,1-.35,4.79,4.11,4.11,0,0,1-1.3,2.44,2.89,2.89,0,0,1-1.78.59l-.67,0c-.46,0-2.93.14-4.28.17-2,.06-5.53.08-7.44,0ZM19.7,21.46c0-.06,0-3.3,0-3.76a5.08,5.08,0,0,0-.48-2.24c-.14-.38-.38-1.13-.55-1.65-1.19-3.8-1.13-3.58-1-3.58.78,0,1.75,0,1.76,0s.26.93.57,2.06l.56,2.08s.18-.64.4-1.46c.44-1.72.69-2.67.7-2.68a6,6,0,0,1,1,0h.8l0,.13c0,.1-.56,1.94-1.13,3.81l-.35,1.18-.35,1.17-.12.37v2.28c0,2.14,0,2.28-.07,2.3a11.48,11.48,0,0,1-1.68,0ZM30,21.59a.91.91,0,0,1-.78-.52c-.2-.39-.2-.39-.2-4.32V13.09h1.59l0,3.38c0,3.67,0,3.58.23,3.64s.42-.06.7-.34l.27-.27v-6.4h1.59v8.39l-.11,0a12.34,12.34,0,0,1-1.43,0c-.06,0-.07-.07-.07-.4V20.7l-.23.22a2,2,0,0,1-1.6.67ZM26,20c.27-.21.27-.23.29-2.58a14.44,14.44,0,0,0,0-2.39c-.07-.34-.21-.5-.46-.57a.6.6,0,0,0-.74.46,45.86,45.86,0,0,0,0,4.72A.59.59,0,0,0,26,20Zm-.62,1.6a2.25,2.25,0,0,1-1.68-1.08c-.32-.58-.35-.89-.33-3.46a10.41,10.41,0,0,1,.1-2.4,2.11,2.11,0,0,1,1.12-1.42,2.29,2.29,0,0,1,2.34.14,2.09,2.09,0,0,1,.9,1.39,13.49,13.49,0,0,1,.07,2.52c0,2.45,0,2.59-.26,3.12a2.23,2.23,0,0,1-1.35,1.12,3,3,0,0,1-.9.08Zm0,0"/></clipPath><circle xmlns="http://www.w3.org/2000/svg" class="cls-2" cx="25" cy="25" r="25"/><path xmlns="http://www.w3.org/2000/svg" class="cls-3" d="M17.82,31.52l0-4.79h1.79V25.24H14.44v1.5h1.75v4.75c0,2.61,0,4.77,0,4.8s.2,0,.79,0h.78l0-4.79Zm14.9-.34a7.56,7.56,0,0,1,.06-1.36.7.7,0,0,1,.73-.56.65.65,0,0,1,.65.4c.09.17.09.25.11.89v.7h-.77c-.66,0-.77,0-.79-.06Zm1.44,5.16a2,2,0,0,0,1.48-1.46,5.23,5.23,0,0,0,.08-.79l0-.56H34.28l0,.5c0,.57-.08.77-.29,1a.78.78,0,0,1-.89,0c-.31-.21-.39-.57-.38-1.74v-.83h3l0-1.23a4.15,4.15,0,0,0-.28-2.07,2.18,2.18,0,0,0-2.66-1,2,2,0,0,0-1.39,1.56,14,14,0,0,0-.07,2.53c0,2.46,0,2.57.26,3.07a2.24,2.24,0,0,0,2.59,1.08Zm-6-1.4a.53.53,0,0,0,.2-.29,12.53,12.53,0,0,0,.06-2.52,9.53,9.53,0,0,0-.08-2.48c-.18-.37-.64-.4-1.06-.08l-.14.11v5l.14.11a.77.77,0,0,0,.89.13Zm.91,1.42a1.19,1.19,0,0,0,.63-.62c.24-.53.24-.55.24-3.55a19.7,19.7,0,0,0-.07-3c-.2-.85-.63-1.23-1.35-1.17a1.7,1.7,0,0,0-1.11.56,2.65,2.65,0,0,1-.33.29s0-.82,0-1.81V25.22H25.67V36.33h1.41V36c0-.25,0-.37,0-.37a2.05,2.05,0,0,1,.35.29,1.52,1.52,0,0,0,1.62.49Zm-7.52,0a2.66,2.66,0,0,0,.89-.62,1.13,1.13,0,0,1,.28-.24s.05.11.05.43v.43h1.41V28.09H22.81v6.35l-.3.3a1.09,1.09,0,0,1-.49.36c-.25.07-.41,0-.52-.16s-.08-.2-.09-3.49V28.09H20v3.57c0,3.89,0,4,.22,4.34a1.09,1.09,0,0,0,1.38.32Zm.6,3.44-2.42-.06c-2.76-.1-4.65-.21-5-.28a2.79,2.79,0,0,1-1.49-.91,5.09,5.09,0,0,1-1-2.81,42.94,42.94,0,0,1,0-9.38,4.6,4.6,0,0,1,1.17-2.82,2.42,2.42,0,0,1,1.18-.69,129.46,129.46,0,0,1,13.74-.36c2.78.06,5.79.19,6.59.28a2.73,2.73,0,0,1,2.26,1.67,7.87,7.87,0,0,1,.65,3.21A36.53,36.53,0,0,1,38,31.68a31.41,31.41,0,0,1-.35,4.79,4.11,4.11,0,0,1-1.3,2.44,2.89,2.89,0,0,1-1.78.59l-.67,0c-.46,0-2.93.14-4.28.17-2,.06-5.53.08-7.44,0ZM19.7,21.46c0-.06,0-3.3,0-3.76a5.08,5.08,0,0,0-.48-2.24c-.14-.38-.38-1.13-.55-1.65-1.19-3.8-1.13-3.58-1-3.58.78,0,1.75,0,1.76,0s.26.93.57,2.06l.56,2.08s.18-.64.4-1.46c.44-1.72.69-2.67.7-2.68a6,6,0,0,1,1,0h.8l0,.13c0,.1-.56,1.94-1.13,3.81l-.35,1.18-.35,1.17-.12.37v2.28c0,2.14,0,2.28-.07,2.3a11.48,11.48,0,0,1-1.68,0ZM30,21.59a.91.91,0,0,1-.78-.52c-.2-.39-.2-.39-.2-4.32V13.09h1.59l0,3.38c0,3.67,0,3.58.23,3.64s.42-.06.7-.34l.27-.27v-6.4h1.59v8.39l-.11,0a12.34,12.34,0,0,1-1.43,0c-.06,0-.07-.07-.07-.4V20.7l-.23.22a2,2,0,0,1-1.6.67ZM26,20c.27-.21.27-.23.29-2.58a14.44,14.44,0,0,0,0-2.39c-.07-.34-.21-.5-.46-.57a.6.6,0,0,0-.74.46,45.86,45.86,0,0,0,0,4.72A.59.59,0,0,0,26,20Zm-.62,1.6a2.25,2.25,0,0,1-1.68-1.08c-.32-.58-.35-.89-.33-3.46a10.41,10.41,0,0,1,.1-2.4,2.11,2.11,0,0,1,1.12-1.42,2.29,2.29,0,0,1,2.34.14,2.09,2.09,0,0,1,.9,1.39,13.49,13.49,0,0,1,.07,2.52c0,2.45,0,2.59-.26,3.12a2.23,2.23,0,0,1-1.35,1.12,3,3,0,0,1-.9.08Zm0,0"/>
  </symbol>
  <symbol id="crlogo" viewBox="0 0 250 250">
    <title>Comic Relief</title>
    <desc>Visit the Comic Relief site</desc>
    <path fill="#FFFFFF" d="M15.7,125C15.7,64.6,64.6,15.7,125,15.7c60.4,0,109.3,48.9,109.3,109.3c0,60.4-48.9,109.3-109.3,109.3
      C64.6,234.3,15.7,185.4,15.7,125L15.7,125z"></path>
    <path fill="#EF3E42" d="M92.5,83.4c-10.3,0-18.6,8.3-18.6,18.6c0,10.3,8.3,18.6,18.6,18.6c10.3,0,18.6-8.3,18.6-18.6
      C111.1,91.7,102.8,83.4,92.5,83.4L92.5,83.4z"></path>
    <path fill="#FFFFFF" d="M106.2,103.9l-3.4-0.2c-0.7,0-1.3-0.7-1.3-1.4c0,0,0.5-6.4-1.9-12.2c0,0-0.2-0.3,0.3-0.3
      c0.3,0,0.8,0.2,1.3,0.4c0,0,5.8,3.5,5.7,12.7C106.8,104.1,106.2,103.9,106.2,103.9L106.2,103.9z"></path>
    <path fill="#231F20" d="M109,131c-0.1,0.2-0.1,1-0.1,1.6c0,0.6,0,32.5,0,33c0,0.4,0,0.9,0.2,1.1c0.2,0.2,0.5,0.2,0.9,0.2
      c0.3,0,15,0,15.5,0c0.6,0,1.3,0,1.5-0.1c0.1-0.1,0.3-0.7,0.5-1.2c0.3-1,1.8-5.2,1.9-5.4c0.1-0.3,0.2-0.7,0.1-0.9
      c-0.2-0.2-0.8-0.2-1.3-0.2c-0.2,0-8.5,0-9.3,0c-0.4,0-0.6,0-0.8-0.2c-0.2-0.2-0.2-0.6-0.2-1c0-0.3,0-26.4,0-26.6
      c0-0.4,0-0.9-0.2-1c-0.2-0.2-0.5-0.2-0.9-0.1c-0.3,0-6.8,0.6-6.9,0.6C109.3,130.8,109.2,130.9,109,131L109,131z"></path>
    <path fill="#231F20" d="M183.9,131.2c0,0.5,0,34.8,0,35.1c0,0.4,0,0.6,0.2,0.7c0.2,0.1,0.4,0.2,0.9,0.1c0.1,0,5.6-0.3,5.6-0.3
      c0.7,0,1.6-0.1,1.8-0.3c0.2-0.2,0.2-0.7,0.2-1.3c0-0.3,0-10.1,0-10.3c0-0.3,0-0.6,0.2-0.8c0.2-0.2,0.7-0.1,1.1-0.1
      c0.3,0,6.7,0,7,0c0.4,0,0.5-0.1,0.6-0.2c0.1-0.1,0.2-0.3,0.2-0.5c0-0.1,0-5.7,0-5.9c0-0.3,0-0.5-0.2-0.7
      c-0.2-0.2-0.3-0.2-0.6-0.2c-0.1,0-7.1,0-7.4,0c-0.2,0-0.3,0-0.6-0.1c-0.2-0.1-0.2-0.5-0.2-0.8c0-0.2,0-6.1,0-6.3
      c0-0.3,0-0.6,0.1-0.7c0.1-0.1,0.5-0.1,0.8-0.1c0.2,0,10,0,10.2,0c0.4,0,0.7-0.1,0.8-0.3c0.1-0.2,0.2-0.4,0.1-0.8
      c-0.1-0.4-1.3-5.4-1.5-6.2c-0.1-0.3-0.1-0.7-0.3-0.8c-0.2-0.1-0.6-0.2-1-0.2c-1,0-16.8,0-17.3,0c-0.3,0-0.4,0-0.6,0.2
      C184,130.6,183.9,130.9,183.9,131.2L183.9,131.2z"></path>
    <path fill="#231F20" d="M70.6,94c-0.5,0.3-2.7-2.8-7.6-2.4s-9.1,4.1-9.2,10.8c-0.2,6.7,5.3,9.8,10.3,9.9c0,0,2.3,0,4.2-0.9
      c0.4-0.2,0.9-0.4,1.3-0.7c0.5-0.4,0.9-0.7,1.1-0.6c0.3,0.2,0.1,2.6-0.3,4.9c-0.1,1.1-0.3,2.1-0.4,2.9c-0.1,0.7-0.3,1.2-0.4,1.4
      c-0.1,0.2-0.4,0.3-0.8,0.5c-1.6,0.7-8.3,2.5-15.7-1.7c-8.6-4.9-8.4-14-8.4-16.6c0-2.7,1.3-10.8,7.9-15.1c0,0,4-3,10.7-3
      c4,0,5.7,0.9,6.3,1.5C70.3,85.4,71.4,93.6,70.6,94L70.6,94z"></path>
    <path fill="#231F20" d="M73.7,163.3c-0.2-0.3-8.5-11.9-8.7-12.2c0-0.1-0.1-0.1,0-0.2c0-0.1,0.1-0.1,0.1-0.1
      c1.1-0.5,5.5-2.7,5.7-8.6c0.2-6.8-3.6-11.2-13-11.6c-7.2-0.3-9.6-0.2-10.6-0.1c-0.3,0-0.6,0.2-0.7,0.3c-0.1,0.2-0.2,0.4-0.2,0.7
      c0,0.5,0,34.4,0,34.8c0,0.2,0.1,0.4,0.2,0.4c0.1,0.1,0.3,0.1,0.5,0.1c0.4,0,6.3-0.6,6.8-0.6c0.4,0,0.7-0.1,0.9-0.3
      c0.2-0.2,0.1-0.6,0.1-1.1c0-0.4,0-13.4,0-13.6c0-0.1,0-0.2,0.1-0.3c0.1,0,0.2,0.1,0.3,0.1c0.2,0.3,8.9,13.8,9.6,14.9
      c0.3,0.5,0.6,1.1,0.9,1.2c0.3,0.1,0.9-0.1,1.1-0.2c0.1,0,6.7-2.1,6.8-2.1c0.3-0.1,0.6-0.2,0.7-0.4
      C74.3,164.1,74,163.7,73.7,163.3L73.7,163.3z M54.9,148.1c-0.1-0.1-0.1-0.3-0.1-0.5c0-0.3,0-6.8,0-9.1c0-0.1,0-0.2,0.1-0.2
      c0.1-0.1,0.1-0.1,0.3-0.1c1.4-0.2,6.9-0.4,6.8,4.9c-0.1,5.3-5.4,5.2-6.8,5.1C55,148.2,55,148.2,54.9,148.1L54.9,148.1z"></path>
    <path fill="#231F20" d="M125.9,104.8c0.1-0.3,0.1-0.7,0.3-0.7c0.3,0,0.3,0.3,0.4,0.6c0.5,1.2,5.3,14.5,5.3,14.5s0.2,0.6,0.4,0.8
      c0.2,0.1,0.6,0.1,0.9,0.1c0.7,0,2.4,0,2.9,0c0.4,0,0.8,0,1-0.1c0.2-0.1,0.3-0.4,0.4-0.7c0.4-1,5.1-13.1,5.6-14.5
      c0.1-0.3,0.2-0.6,0.4-0.6c0.2,0,0.2,0.4,0.3,0.7c0.2,1.3,2.4,13.1,2.7,14.9c0.1,0.3,0.1,0.7,0.3,0.8c0.2,0.2,0.5,0.1,0.8,0
      c1.3-0.2,6-0.9,6.6-0.9c0.3,0,0.6-0.1,0.7-0.3c0.1-0.1-0.1-0.7-0.2-1.2c-0.7-3.3-6.7-32.5-7-33.7c-0.1-0.3-0.2-0.5-0.4-0.7
      c-0.2-0.1-0.6-0.2-1-0.2c-0.4,0-2.6,0-2.8,0c-0.4,0-0.8,0-0.9,0.1c-0.2,0.1-0.3,0.4-0.4,0.7c-0.4,1.2-7.5,20.2-7.5,20.2
      s-6.7-18.3-7.4-20.2c-0.1-0.3-0.2-0.5-0.4-0.7c-0.2-0.1-0.6-0.1-1-0.1c-0.8,0-2.2,0-2.8,0c-0.4,0-0.8,0-1,0.1
      c-0.2,0.1-0.3,0.4-0.4,0.7c-1,4.8-4.3,20.8-7,33.8c-0.1,0.5-0.3,1-0.1,1.2c0.1,0.2,0.4,0.3,0.7,0.3c1.4,0.2,6,0.8,6.6,0.9
      c0.3,0.1,0.6,0.1,0.8,0c0.1-0.1,0.3-0.5,0.3-0.8C123.8,116.2,125.6,106.4,125.9,104.8L125.9,104.8z"></path>
    <path fill="#231F20" d="M162.4,119.9c0-0.1,0-35.1,0-35.2c0-0.1,0.1-0.3,0.2-0.4c0.1-0.1,0.2-0.2,0.3-0.2c0.1,0,7.8-0.6,8.1-0.7
      c0.2,0,0.3,0.1,0.5,0.2c0.1,0.1,0.2,0.3,0.2,0.4c0,0.2,0,34.9,0,35.1c0,0.2-0.1,0.4-0.2,0.5c-0.1,0.1-0.2,0.2-0.5,0.2
      c-0.4,0-7.4,0.6-7.9,0.7c-0.1,0-0.3,0-0.5-0.2C162.4,120.2,162.4,120.1,162.4,119.9L162.4,119.9z"></path>
    <path fill="#231F20" d="M154.1,131.5c0,0.2,0,33,0,33.7c0,0.7,0.1,1,0.3,1.3c0.2,0.2,0.6,0.3,1.2,0.3c0.3,0,17.6,0,17.6,0
      s1.4,0,1.6-0.2c0.3-0.3,0.6-1.2,0.6-1.2l1.6-4.8c0,0,0.4-0.9,0.1-1.2c-0.3-0.4-1.2-0.3-1.2-0.3s-11.3,0-11.9,0
      c-0.4,0-0.8,0-1-0.2c-0.2-0.2-0.2-0.7-0.2-1.1c0-0.2,0-4.4,0-4.7c0-0.4,0-0.8,0.1-1c0.1-0.2,0.5-0.1,0.8-0.1c0.5,0,6.9,0,7.1,0
      c0.4,0,1,0.1,1.2-0.2c0.3-0.2,0.2-0.6,0.2-1c0-0.2,0-5,0-5.3c0-0.3,0.1-0.8-0.2-1c-0.3-0.2-0.7-0.2-1.2-0.2c-0.3,0-6.4,0-6.9,0
      c-0.3,0-0.7,0-0.9-0.1c-0.1-0.1-0.1-0.6-0.1-1c0-0.5,0-4,0-4.2c0-0.4,0-0.9,0.1-1c0.1-0.1,0.4-0.1,0.7-0.1c0.4,0,10.5,0,11,0
      c0.6,0,0.9,0,1.1-0.3c0.3-0.3,0.2-0.5,0.1-0.8c-0.1-0.4-1.2-5.6-1.2-5.6s-0.1-0.5-0.3-0.6c-0.3-0.2-1.1-0.2-1.1-0.2
      s-18.4,0-18.6,0c-0.4,0-0.6,0.1-0.8,0.3C154.2,131,154.1,131.2,154.1,131.5L154.1,131.5z"></path>
    <path fill="#231F20" d="M134.9,166.5c0-0.1,0-35.1,0-35.2c0-0.1,0.1-0.3,0.2-0.4c0.1-0.1,0.2-0.2,0.3-0.2c0.1,0,7.8-0.6,8.1-0.7
      c0.2,0,0.3,0.1,0.5,0.2c0.1,0.1,0.2,0.3,0.2,0.4c0,0.2,0,34.9,0,35.1c0,0.2-0.1,0.4-0.2,0.5c-0.1,0.1-0.2,0.2-0.5,0.2
      c-0.4,0-7.4,0.6-7.9,0.7c-0.1,0-0.3,0-0.5-0.2C135,166.8,134.9,166.7,134.9,166.5L134.9,166.5z"></path>
    <path fill="#231F20" d="M79.6,131.5c0,0.2,0,33,0,33.7c0,0.7,0.1,1,0.3,1.3c0.2,0.2,0.6,0.3,1.2,0.3c0.3,0,17.6,0,17.6,0
      s1.4,0,1.6-0.2c0.3-0.3,0.6-1.2,0.6-1.2l1.6-4.8c0,0,0.4-0.9,0.1-1.2c-0.3-0.4-1.2-0.3-1.2-0.3s-11.3,0-11.9,0
      c-0.4,0-0.8,0-1-0.2c-0.2-0.2-0.2-0.7-0.2-1.1c0-0.2,0-4.4,0-4.7c0-0.4,0-0.8,0.1-1c0.1-0.2,0.5-0.1,0.8-0.1c0.5,0,6.9,0,7.1,0
      c0.4,0,1,0.1,1.2-0.2c0.3-0.2,0.2-0.6,0.2-1c0-0.2,0-5,0-5.3c0-0.3,0.1-0.8-0.2-1c-0.3-0.2-0.7-0.2-1.2-0.2c-0.3,0-6.4,0-6.9,0
      c-0.3,0-0.7,0-0.9-0.1c-0.1-0.1-0.1-0.6-0.1-1c0-0.5,0-4,0-4.2c0-0.4,0-0.9,0.1-1c0.1-0.1,0.4-0.1,0.7-0.1c0.4,0,10.5,0,11,0
      c0.4,0,0.9,0,1.1-0.2c0.3-0.3,0.2-0.5,0.1-0.9c-0.1-0.4-1.2-5.6-1.2-5.6s-0.1-0.5-0.3-0.6c-0.3-0.2-1.1-0.2-1.1-0.2
      s-18.4,0-18.6,0c-0.4,0-0.6,0.1-0.8,0.3C79.6,131,79.6,131.2,79.6,131.5L79.6,131.5z"></path>
    <path fill="#231F20" d="M204.5,94c-0.5,0.3-2.7-2.8-7.6-2.4c-4.9,0.4-9.1,4.1-9.2,10.8c-0.2,6.7,5.3,9.8,10.3,9.9
      c0,0,2.3,0,4.2-0.9c0.4-0.2,0.9-0.4,1.3-0.7c0.5-0.4,0.9-0.7,1.1-0.6c0.3,0.2,0.1,2.6-0.3,4.9c-0.1,1.1-0.3,2.1-0.4,2.9
      c-0.1,0.7-0.2,1.2-0.4,1.4c-0.1,0.2-0.4,0.3-0.8,0.5c-1.6,0.7-8.3,2.5-15.7-1.7c-8.6-4.9-8.4-14-8.4-16.6
      c0-2.7,1.3-10.8,7.9-15.1c0,0,4-3,10.7-3c4,0,5.7,0.9,6.3,1.5C204.2,85.4,205.3,93.6,204.5,94L204.5,94z"></path>
  </symbol>
  <symbol id="close-cross" viewBox="3 3 32 32">
    <title>Close</title>
    <desc>Close window</desc>
    <path d="M21.4,20l8.3,8.3l-1.4,1.4L20,21.4l-8.3,8.3l-1.4-1.4l8.3-8.3l-8.3-8.3l1.4-1.4l8.3,8.3l8.3-8.3l1.4,1.4L21.4,20z"/>
  </symbol>
  <symbol id="envelope" viewBox="10 10 20 20">
    <title>Get the latest</title>
    <desc>Opens email sign up box</desc>
    <path d="M28,12H12h-2v2v12v2h2h16h2v-2V14v-2H28z M26.6,14L20,20.6L13.4,14H26.6z M12,26V15.4l8,8l8-8V26H12z"/>
  </symbol>
  <symbol id="social-link-facebook" viewBox="0 0 50 50" enable-background="new 0 0 50 50" xml:space="preserve">
    <title>Facebook share icon</title>
    <desc>Share current page on Facebook</desc>
    <circle fill="#3B5998" cx="25" cy="25" r="25"/>
    <path id="SVGID_2_" d="M26.494,38.068h-5.543v-13.07h-2.77v-4.503h2.77v-2.704c0-3.674,1.563-5.859,6.007-5.859h3.698v4.505
                h-2.312c-1.73,0-1.844,0.629-1.844,1.804l-0.008,2.254h4.189l-0.49,4.503h-3.698L26.494,38.068L26.494,38.068L26.494,38.068z
                 M26.494,38.068" overflow="visible" fill="#FFFFFF"/>
  </symbol>
  <symbol id="social-link-twitter" viewBox="0 0 50 50" enable-background="new 0 0 50 50" xml:space="preserve">
    <title>Twitter share icon</title>
    <desc>Share current page on Twitter</desc>
    <circle fill="#00B6EE" cx="25" cy="25" r="25"/>
    <path id="SVGID_4_" d="M35.888,18.222c1.144-0.722,2.022-1.867,2.434-3.231c-1.071,0.67-2.255,1.155-3.518,1.417
      c-1.008-1.137-2.448-1.845-4.043-1.845c-3.059,0-5.537,2.616-5.537,5.842c0,0.458,0.046,0.904,0.141,1.33
      c-4.602-0.244-8.683-2.567-11.417-6.104c-0.477,0.866-0.75,1.869-0.75,2.938c0,2.026,0.978,3.814,2.464,4.864
      c-0.908-0.03-1.762-0.296-2.51-0.73v0.072c0,2.831,1.908,5.193,4.445,5.728c-0.466,0.137-0.954,0.206-1.461,0.206
      c-0.357,0-0.705-0.035-1.041-0.104c0.704,2.32,2.75,4.011,5.174,4.057c-1.897,1.568-4.285,2.5-6.88,2.5
      c-0.447,0-0.889-0.025-1.322-0.08c2.452,1.656,5.363,2.624,8.491,2.624c10.19,0,15.759-8.902,15.759-16.623
      c0-0.254-0.003-0.506-0.014-0.755c1.082-0.824,2.024-1.854,2.764-3.025C38.075,17.768,37.006,18.082,35.888,18.222L35.888,18.222z
       M35.888,18.222" overflow="visible" fill="#FFFFFF"/>
  </symbol>
</svg>
