<?xml version="1.0" standalone="no"?><!DOCTYPE svg PUBLIC "-//W3C//DTD SVG 1.1//EN" "http://www.w3.org/Graphics/SVG/1.1/DTD/svg11.dtd"><svg width="192" height="63" viewBox="0 0 383 126" version="1.1" xmlns="http://www.w3.org/2000/svg" xmlns:xlink="http://www.w3.org/1999/xlink" xml:space="preserve" style="fill-rule:evenodd;clip-rule:evenodd;stroke-linejoin:round;stroke-miterlimit:1.41421;"><path d="M276.435,51.268c-3.255,-6.458 -7.762,-11.575 -13.509,-15.367c-2.972,-1.988 -6.811,-3.887 -14.85,-8.438c-10.478,-5.934 -11.575,-12.99 -11.575,-12.99l-0.1,0c0,0 -1.1,7.057 -11.578,12.99c-5.95,3.368 -9.597,5.28 -12.298,6.854c-3.368,1.878 -6.385,4.214 -9.035,7.03c-7.948,8.448 -11.922,20.288 -11.922,35.514c0,9.783 1.835,18.341 5.502,25.675c3.669,7.338 8.921,12.965 15.758,16.884c6.834,3.917 14.726,5.874 23.675,5.874c14.28,0 25.427,-4.277 33.429,-12.836c8.004,-8.559 12.005,-20.424 12.005,-35.597c0,-9.779 -1.834,-18.31 -5.502,-25.593ZM251.466,97.827c-2.974,4.697 -7.85,7.046 -14.631,7.046c-6.834,0 -11.767,-2.361 -14.797,-7.088c-3.03,-4.723 -4.543,-11.698 -4.543,-20.923c0,-9.28 1.501,-16.215 4.501,-20.8c3.002,-4.583 7.893,-6.876 14.673,-6.876c6.835,0 11.755,2.307 14.756,6.918c3,4.614 4.502,11.535 4.502,20.758c0,9.282 -1.488,16.27 -4.461,20.965Z" fill="#fff"/><path d="M65.357,123.628l-4.918,-12.671l-0.667,0c-4.28,5.392 -8.685,9.13 -13.213,11.212c-4.53,2.087 -10.435,3.126 -17.715,3.126c-8.948,0 -15.993,-2.554 -21.133,-7.668c-5.141,-5.111 -7.711,-12.393 -7.711,-21.84c0,-9.893 3.459,-17.188 10.379,-21.885c6.919,-4.695 17.353,-7.293 31.303,-7.792l16.173,-0.502l0,-4.084c0,-9.449 -4.836,-14.172 -14.506,-14.172c-7.448,0 -16.201,2.25 -26.26,6.752l-8.419,-17.171c10.726,-5.615 22.619,-8.422 35.68,-8.422c12.505,0 22.092,2.723 28.761,8.169c6.669,5.449 10.004,13.728 10.004,24.844l0,62.104l-17.758,0ZM57.855,80.445l-9.837,0.336c-7.392,0.221 -12.894,1.555 -16.506,4c-3.613,2.447 -5.419,6.169 -5.419,11.17c0,7.172 4.113,10.756 12.338,10.756c5.89,0 10.6,-1.695 14.13,-5.086c3.529,-3.389 5.293,-7.889 5.293,-13.506l0,-7.67l0.001,0Z" fill="#fff"/><path d="M138.947,55.188l48.355,0l0,63.188c-7.836,2.559 -15.215,4.35 -22.133,5.377c-6.919,1.027 -13.998,1.541 -21.22,1.541c-18.396,0 -32.443,-5.404 -42.141,-16.213c-9.699,-10.807 -14.547,-26.33 -14.547,-46.56c0,-19.673 5.627,-35.011 16.88,-46.016c11.254,-11.004 26.856,-16.505 46.81,-16.505c12.509,0 24.566,2.5 36.183,7.501l-8.586,20.675c-8.894,-4.445 -18.146,-6.669 -27.763,-6.669c-11.171,0 -20.12,3.75 -26.843,11.254c-6.725,7.504 -10.087,17.59 -10.087,30.262c0,13.225 2.709,23.328 8.128,30.3c5.418,6.976 13.296,10.464 23.633,10.464c5.39,0 10.869,-0.554 16.426,-1.668l0,-25.426l-13.963,0l-9.132,-21.505Z" fill="#fff"/><path d="M309.571,123.628l-35.512,-93.2l26.593,0l18.005,53.103c2.002,6.725 3.252,13.09 3.751,19.09l0.503,0c0.277,-5.335 1.526,-11.699 3.75,-19.09l17.923,-53.103l26.593,0l-35.514,93.2l-26.092,0Z" fill="#fff"/><path d="M380.632,38.702c-0.945,0.949 -2.088,1.424 -3.428,1.424c-1.341,0 -2.48,-0.475 -3.422,-1.424c-0.936,-0.945 -1.403,-2.09 -1.403,-3.435c0,-1.332 0.472,-2.47 1.417,-3.415c0.94,-0.94 2.076,-1.411 3.408,-1.411c1.34,0 2.482,0.47 3.428,1.411c0.944,0.94 1.417,2.079 1.417,3.415c0,1.341 -0.472,2.486 -1.417,3.435ZM374.264,32.327c-0.809,0.813 -1.213,1.795 -1.213,2.947c0,1.16 0.402,2.149 1.207,2.966c0.809,0.817 1.79,1.226 2.946,1.226c1.155,0 2.138,-0.409 2.946,-1.226c0.808,-0.817 1.213,-1.806 1.213,-2.966c0,-1.151 -0.404,-2.134 -1.213,-2.947c-0.812,-0.817 -1.795,-1.226 -2.946,-1.226c-1.147,0 -2.126,0.409 -2.94,1.226ZM377.112,32.598c0.659,0 1.143,0.063 1.45,0.191c0.55,0.229 0.824,0.678 0.824,1.347c0,0.475 -0.172,0.824 -0.519,1.049c-0.184,0.119 -0.439,0.205 -0.768,0.257c0.415,0.066 0.72,0.239 0.911,0.52c0.192,0.281 0.289,0.556 0.289,0.823l0,0.389c0,0.123 0.005,0.254 0.014,0.395c0.009,0.14 0.024,0.232 0.046,0.276l0.033,0.066l-0.877,0c-0.004,-0.018 -0.009,-0.035 -0.013,-0.053c-0.005,-0.018 -0.009,-0.038 -0.014,-0.059l-0.02,-0.17l0,-0.421c0,-0.613 -0.167,-1.019 -0.501,-1.216c-0.198,-0.114 -0.545,-0.171 -1.042,-0.171l-0.738,0l0,2.09l-0.936,0l0,-5.313l1.861,0ZM378.123,33.435c-0.236,-0.132 -0.613,-0.198 -1.134,-0.198l-0.8,0l0,1.925l0.847,0c0.396,0 0.694,-0.04 0.893,-0.119c0.366,-0.145 0.549,-0.422 0.549,-0.831c-0.001,-0.386 -0.119,-0.645 -0.355,-0.777Z" fill="#fff"/></svg>